<svg xmlns="http://www.w3.org/2000/svg" viewBox="0 0 91.06 107.18"><defs><style>.cls-1{fill:#ff3301;}</style></defs><g id="Capa_2" data-name="Capa 2"><g id="Capa_1-2" data-name="Capa 1"><path class="cls-1" d="M77.33,53.49V32.82A5.53,5.53,0,0,0,71.8,27.3H19.26a5.53,5.53,0,0,0-5.52,5.52V53.49A5.53,5.53,0,0,0,19.26,59H71.8A5.53,5.53,0,0,0,77.33,53.49Zm-60.45,0V32.82a2.39,2.39,0,0,1,2.38-2.38H71.8a2.39,2.39,0,0,1,2.39,2.38V53.49a2.39,2.39,0,0,1-2.39,2.38H19.26A2.39,2.39,0,0,1,16.88,53.49Z"/><path class="cls-1" d="M68.78,33H22.28a2.83,2.83,0,0,0-2.83,2.83V50.47a2.83,2.83,0,0,0,2.83,2.83h46.5a2.83,2.83,0,0,0,2.83-2.83V35.84A2.83,2.83,0,0,0,68.78,33Zm-.31,17.15H22.59v-14H68.47Z"/><path class="cls-1" d="M44,84.78V97.34a1.57,1.57,0,1,0,3.14,0V84.78a1.57,1.57,0,1,0-3.14,0Z"/><path class="cls-1" d="M37.68,85.62V96.51a1.57,1.57,0,1,0,3.14,0V85.62a1.57,1.57,0,1,0-3.14,0Z"/><path class="cls-1" d="M31.4,86.46v9.21a1.57,1.57,0,1,0,3.14,0V86.46a1.57,1.57,0,0,0-3.14,0Z"/><path class="cls-1" d="M50.24,85.62V96.51a1.57,1.57,0,1,0,3.14,0V85.62a1.57,1.57,0,1,0-3.14,0Z"/><path class="cls-1" d="M56.52,86.46v9.21a1.57,1.57,0,1,0,3.14,0V86.46a1.57,1.57,0,1,0-3.14,0Z"/><path class="cls-1" d="M66.35,9.63a36.54,36.54,0,0,1,6.58,5.83H18.13A36.84,36.84,0,0,1,45.53,3.14a36.31,36.31,0,0,1,14.7,3.07A38,38,0,0,1,66.35,9.63Zm-4.86-6.3A39.81,39.81,0,0,0,14.06,15.46H10a4.27,4.27,0,0,0-4.27,4.27V35.59H3.45A3.46,3.46,0,0,0,0,39V50.73a3.46,3.46,0,0,0,3.45,3.45H5.76V80.6A26.35,26.35,0,0,0,8.4,92.16a19,19,0,0,0,4.36,6.42,26.64,26.64,0,0,0,19.58,8.6H58.72A26.61,26.61,0,0,0,85.31,80.6V54.18h2.3a3.46,3.46,0,0,0,3.45-3.45V39a3.45,3.45,0,0,0-3.45-3.45h-2.3V19.73A4.28,4.28,0,0,0,81,15.46H77A39.84,39.84,0,0,0,68.14,7,45.23,45.23,0,0,0,61.49,3.33ZM11.22,90.79A23.25,23.25,0,0,1,8.9,80.6V19.73A1.14,1.14,0,0,1,10,18.6H81a1.14,1.14,0,0,1,1.14,1.13V80.6A23.47,23.47,0,0,1,58.72,104H32.34a23.49,23.49,0,0,1-17.27-7.59,16.52,16.52,0,0,1-3.85-5.66M5.76,51H3.45a.31.31,0,0,1-.31-.31V39a.31.31,0,0,1,.31-.31H5.76Zm82.16-.31a.31.31,0,0,1-.31.31h-2.3V38.73h2.3a.31.31,0,0,1,.31.31Z"/></g></g></svg>