<svg xmlns="http://www.w3.org/2000/svg" viewBox="0 0 112.15 107"><defs><style>.cls-1{fill:#ff3301;}</style></defs><g id="Capa_2" data-name="Capa 2"><g id="Capa_1-2" data-name="Capa 1"><path class="cls-1" d="M49.68,35.73a1.65,1.65,0,0,0,1.64-1.64v-1a1.65,1.65,0,1,0-3.29,0v1A1.65,1.65,0,0,0,49.68,35.73Z"/><path class="cls-1" d="M62.65,35.73a1.64,1.64,0,0,0,1.64-1.64v-1a1.64,1.64,0,1,0-3.28,0v1A1.64,1.64,0,0,0,62.65,35.73Z"/><path class="cls-1" d="M109.6,73.57A19.25,19.25,0,0,0,98.49,60l.1-.39a2.62,2.62,0,0,0-.52-2.26,3.31,3.31,0,0,0-2.54-1.22H92.78A37.32,37.32,0,0,0,75.24,30.93V28.06a3.66,3.66,0,0,0,2.3-3.39V20.9A3.67,3.67,0,0,0,75,17.41,19.29,19.29,0,0,0,63.89,3.86L64,3.49a2.66,2.66,0,0,0-.51-2.26A3.29,3.29,0,0,0,60.92,0H51.25a3.32,3.32,0,0,0-2.54,1.22,2.63,2.63,0,0,0-.52,2.27l.1.38A19.25,19.25,0,0,0,37.18,17.41a3.67,3.67,0,0,0-2.55,3.49v3.77A3.65,3.65,0,0,0,36.85,28l.07,2.89A37.3,37.3,0,0,0,19.38,56.16H16.62a3.3,3.3,0,0,0-2.55,1.23,2.62,2.62,0,0,0-.5,2.26l.09.38A19.2,19.2,0,0,0,2.55,73.57,3.68,3.68,0,0,0,0,77.06v3.77A3.68,3.68,0,0,0,2.22,84.2l.08,3.38c0,7.13,6.51,15.56,14.19,18.42a14,14,0,0,0,5,1,14,14,0,0,0,4.93-1A23.83,23.83,0,0,0,38.28,95.55a37.36,37.36,0,0,0,35.59,0A23.83,23.83,0,0,0,85.73,106a12.81,12.81,0,0,0,9.9,0c7.71-2.86,14.22-11.31,14.22-18.45V84.22a3.65,3.65,0,0,0,2.3-3.39V77.06a3.67,3.67,0,0,0-2.55-3.49ZM93.22,59.45h2L95,60.53l-.06.21-1.16,4.74H87.63l-1.49-6h7.08ZM60.64,3.29l-1.49,6H53L51.85,4.58a1.66,1.66,0,0,0-.06-.21l-.26-1.08ZM37.91,20.9a.38.38,0,0,1,.38-.37H65.12a1.65,1.65,0,0,0,0-3.29H40.61A16,16,0,0,1,49.09,7.11L50,10.92c.29,1.16,1.19,1.74,2.69,1.69H59.6c1.42,0,2.28-.57,2.55-1.69l.93-3.81a16,16,0,0,1,8.48,10.13H59.1a1.65,1.65,0,0,0,0,3.29H73.88a.38.38,0,0,1,.38.37v3.77a.38.38,0,0,1-.38.37H38.29a.38.38,0,0,1-.38-.37Zm2.24,7.43H72V31.4a11.09,11.09,0,0,1-.1,1.39c-.79,5.51-6,11.78-12,14a9.63,9.63,0,0,1-7.61,0c-5.92-2.2-11.17-8.47-12-14a10.94,10.94,0,0,1-.1-1.38v0l-.05-2.18ZM18.93,59.45H26l-.29,1.18v0l-1.19,4.82H18.38L17.2,60.66v0l-.29-1.18ZM3.29,80.83V77.06a.37.37,0,0,1,.36-.37h31a1.65,1.65,0,1,0,0-3.29H6a16,16,0,0,1,8.47-10.13l.94,3.81a2.28,2.28,0,0,0,2.55,1.7h6.88c1.49,0,2.41-.52,2.7-1.69l.93-3.81A16,16,0,0,1,36.92,73.4H24.47a1.5,1.5,0,0,0-.67.15,1.63,1.63,0,0,0-1,1.5,1.65,1.65,0,0,0,1.65,1.64H39.25a.38.38,0,0,1,.37.37v3.77a.38.38,0,0,1-.37.37H3.65a.37.37,0,0,1-.36-.37Zm22,22.1a9.63,9.63,0,0,1-7.61,0c-6.42-2.38-12.06-9.56-12.06-15.36v0l-.06-3h31.8v3.07a11,11,0,0,1-.52,3.23,15.71,15.71,0,0,1-1.32,3.07,20.64,20.64,0,0,1-10.23,9.07Zm30.82-6.15a33.85,33.85,0,0,1-16.41-4.22,14.78,14.78,0,0,0,1-5V84.22a3.66,3.66,0,0,0,2.3-3.39V77.06a3.67,3.67,0,0,0-2.56-3.49A19.21,19.21,0,0,0,29.25,60l.09-.38a2.65,2.65,0,0,0-.5-2.26,3.32,3.32,0,0,0-2.55-1.23H22.72a34,34,0,0,1,14.6-21.61c1.51,6.3,7.22,12.84,13.81,15.29a12.79,12.79,0,0,0,9.89,0c6.6-2.44,12.32-9,13.83-15.29a34,34,0,0,1,14.58,21.6H85.86a3.3,3.3,0,0,0-2.55,1.23,2.66,2.66,0,0,0-.51,2.26l.1.38A19.25,19.25,0,0,0,71.79,73.57a3.67,3.67,0,0,0-2.55,3.49v3.77a3.67,3.67,0,0,0,2.23,3.37l.07,3.38a14.67,14.67,0,0,0,.95,5,33.86,33.86,0,0,1-16.42,4.22Zm50.5-9.22c0,5.8-5.65,13-12.08,15.37a9.63,9.63,0,0,1-7.61,0,20.53,20.53,0,0,1-10.21-9.06,16.39,16.39,0,0,1-1.33-3.07,11.28,11.28,0,0,1-.52-3.23v0l-.06-3h31.81Zm2.3-6.73a.38.38,0,0,1-.38.37H72.9a.38.38,0,0,1-.38-.37V77.06a.38.38,0,0,1,.38-.37h32a1.64,1.64,0,0,0,1.49-1.63A1.67,1.67,0,0,0,106,74a1.65,1.65,0,0,0-1.24-.56H75.22A16,16,0,0,1,83.7,63.27l.94,3.81c.28,1.17,1.18,1.73,2.69,1.69h6.88a2.29,2.29,0,0,0,2.55-1.7l.93-3.8a16,16,0,0,1,8.48,10.12H94.56a1.65,1.65,0,0,0,0,3.29h13.93a.38.38,0,0,1,.38.37Z"/><path class="cls-1" d="M84.28,87.57a1.72,1.72,0,0,0-.39,0,1.67,1.67,0,0,0-1.23,1.31,2.64,2.64,0,0,0,0,.29v1a1.64,1.64,0,0,0,3.28,0v-1A1.63,1.63,0,0,0,84.28,87.57Z"/><path class="cls-1" d="M97.26,91.89a1.63,1.63,0,0,0,1.64-1.64v-1a1.64,1.64,0,0,0-3.28,0v1A1.63,1.63,0,0,0,97.26,91.89Z"/><path class="cls-1" d="M15,87.57a1.63,1.63,0,0,0-1.64,1.64v1a1.65,1.65,0,0,0,3.29,0v-1A1.64,1.64,0,0,0,15,87.57Z"/><path class="cls-1" d="M28.23,87.58H28a1.64,1.64,0,0,0-1.64,1.64v1a1.65,1.65,0,0,0,3.29,0v-1s0-.08,0-.13A1.64,1.64,0,0,0,28.23,87.58Z"/></g></g></svg>