<svg xmlns="http://www.w3.org/2000/svg" viewBox="0 0 107 107"><defs><style>.cls-1{fill:#ff3301;}</style></defs><g id="Capa_2" data-name="Capa 2"><g id="Capa_1-2" data-name="Capa 1"><path class="cls-1" d="M106.4,23l-4.75-7.13a3.53,3.53,0,0,0-3-1.59H84.05L46.15,3.92A5.35,5.35,0,0,0,41,0H37.45a5.34,5.34,0,0,0-5.17,4.05L4.91,14.31A5.34,5.34,0,0,0,0,19.62V33.88a5.35,5.35,0,0,0,5.35,5.35H23.18a5.34,5.34,0,0,0,5.35-5.35V28.53H32.1v64.2H19.62a8.93,8.93,0,0,0-8.92,8.92v1.78A3.57,3.57,0,0,0,14.27,107H64.2a3.57,3.57,0,0,0,3.57-3.57v-1.78a8.94,8.94,0,0,0-8.92-8.92H46.37V58.85H57.26A4.62,4.62,0,0,0,60,57.92l9.45-7.09a4.62,4.62,0,0,0,1.85-3.69V28.53H82V53.59l0,1.65A1.78,1.78,0,0,0,83.84,57a1.79,1.79,0,1,1-1.78,1.79H78.49a5.31,5.31,0,0,0,1.37,3.53l-4.58,6.1h0a1.7,1.7,0,0,0-.38,1.06v7.13a1.75,1.75,0,0,0,.52,1.26L79,81.47a1.78,1.78,0,0,0,1.26.52h7.13a1.8,1.8,0,0,0,1.26-.52l3.57-3.57a1.8,1.8,0,0,0,.52-1.26V69.51a1.76,1.76,0,0,0-.38-1.06h0l-4.57-6.1a5.32,5.32,0,0,0-2.2-8.58l0-.17V28.53h17.83a3.56,3.56,0,0,0,3-5.54ZM89.19,71.29V75.9l-2.52,2.52H81L78.49,75.9V71.29Zm-1.78-3.57H80.28L83,64.16h1.78ZM57.8,17.83H70.6l-6.4,6.4ZM59.9,25H47.1l6.4-6.4ZM46.37,7.68,70.5,14.27H46.37ZM49.2,17.83l-6.4,6.4-6.4-6.4ZM35.67,5.35a1.78,1.78,0,0,1,1.78-1.78H41A1.78,1.78,0,0,1,42.8,5.35v8.92H35.67ZM25,33.88a1.79,1.79,0,0,1-1.79,1.79H5.35a1.79,1.79,0,0,1-1.78-1.79V19.62a1.79,1.79,0,0,1,1.78-1.79H8.92v5.35a1.78,1.78,0,1,0,3.56,0V17.83h3.57v5.35a1.79,1.79,0,1,0,3.57,0V17.83H25ZM15.19,14.27,32.1,7.92v6.35ZM28.53,25V17.83h2.83L38.49,25ZM42.8,28.53v64.2H35.67V28.53ZM58.85,96.3a5.36,5.36,0,0,1,5.35,5.35v1.78H14.27v-1.78a5.35,5.35,0,0,1,5.35-5.35Zm-1-41.23a1.06,1.06,0,0,1-.63.21H46.37V48.15H67.12Zm9.88-10.49H46.37v-16h21.4ZM68.5,25l7.14-7.14H76L83.08,25ZM81,17.83H93.78l-6.4,6.4ZM91.68,25l7-7,4.7,7Z"/></g></g></svg>