<svg xmlns="http://www.w3.org/2000/svg" viewBox="0 0 105.12 107"><defs><style>.cls-1{fill:#ff3301;}</style></defs><g id="Capa_2" data-name="Capa 2"><g id="Capa_1-2" data-name="Capa 1"><path class="cls-1" d="M45.15,21.07a27.54,27.54,0,1,0,18.14-6.81h0a27.46,27.46,0,0,0-11.56,2.53M53,19.64A24.36,24.36,0,1,1,70.51,65V55.73a16.4,16.4,0,0,0,2.54-28.59c-.67-.45-2.69-1.83-4.39-.85s-1.4,4.47-1.4,4.52v8.94a4.36,4.36,0,0,1-4,4.33,4.36,4.36,0,0,1-4-4.33V30.82c0-.06.26-3.57-1.4-4.53s-3.73.4-4.39.85a16.4,16.4,0,0,0,2.54,28.59V65a24.32,24.32,0,0,1-9-41.43,3,3,0,0,1,.3-.23A22.06,22.06,0,0,1,53,19.64m-1.31-2.85a52.63,52.63,0,0,0-6.58,4.28M59.21,65.73V54.68a1.56,1.56,0,0,0-1-1.47A13.27,13.27,0,0,1,55.3,29.73a5.9,5.9,0,0,1,.94-.54l-.05,10.56a7.51,7.51,0,0,0,7,7.47h.21a7.5,7.5,0,0,0,7-7.47l0-10.56a5.93,5.93,0,0,1,.93.54A13.28,13.28,0,0,1,68.4,53.21a1.56,1.56,0,0,0-1,1.47V65.73a24.65,24.65,0,0,1-8.16,0Z"/><path class="cls-1" d="M34.08,104.41l12.66,2.19a17.32,17.32,0,0,0,3.82.4,19.5,19.5,0,0,0,5.58-.81l33.21-9.91a6.09,6.09,0,0,0,4.45-7.45c-.72-2.65-3.46-5-7.75-4L64.89,89.81a14.26,14.26,0,0,1-5.17,0c-.67-.08-1.36-.16-2.1-.22L45.89,87.65c-1.23-.31-1.88-1.07-1.73-2a1.77,1.77,0,0,1,2-1.49h3.89a8.56,8.56,0,0,0,5.17-1.52,4.7,4.7,0,0,0,2.73.87H68.63a4.76,4.76,0,0,0,4.76-4.75V76.23a35.11,35.11,0,0,0,7.2-3L82.36,75a4.76,4.76,0,0,0,6.73,0l7.56-7.53a4.77,4.77,0,0,0,0-6.73L94.88,59a35.16,35.16,0,0,0,3-7.17h2.48a4.77,4.77,0,0,0,4.77-4.76V36.4a4.77,4.77,0,0,0-4.77-4.75H97.87a35.48,35.48,0,0,0-3-7.18l1.77-1.76a4.75,4.75,0,0,0,0-6.72L89.09,8.45a4.79,4.79,0,0,0-6.74,0l-1.76,1.76a36.2,36.2,0,0,0-7.2-3V4.75A4.76,4.76,0,0,0,68.63,0H58a4.76,4.76,0,0,0-4.76,4.75V7.24a35.34,35.34,0,0,0-7.2,3L44.23,8.45a4.77,4.77,0,0,0-6.73,0L29.94,16a4.77,4.77,0,0,0,0,6.73l1.76,1.75a36.27,36.27,0,0,0-3,7.18H26.23a4.76,4.76,0,0,0-4.76,4.75V47.06a4.76,4.76,0,0,0,4.76,4.76h2.49a36.27,36.27,0,0,0,3,7.18l-1.76,1.75a4.77,4.77,0,0,0,0,6.73l3.59,3.58c-1.72.43-3.64,1-5.88,1.65L16.56,76.13A4,4,0,0,0,13,73.93H4a4,4,0,0,0-4,4V100a4,4,0,0,0,4,4H13a4,4,0,0,0,3.71-2.59l9.71,1.68a1.24,1.24,0,0,0,.27,0ZM27,100,17,98.27v-19l11.6-3.57c3-.93,5.45-1.58,7.58-2,1.39-.29,2.65-.5,3.87-.64.64-.08,1.28-.14,1.91-.18,1.31-.09,2.62-.12,4-.12h4.77a4.58,4.58,0,0,1,4.08,4.73,3.49,3.49,0,0,1-1.45,2.59,5.48,5.48,0,0,1-3.33.92H46.33a4.88,4.88,0,0,0-5.26,4.15,5,5,0,0,0,4.15,5.58l.1,0,11.85,2,.14,0c.7,0,1.38.13,2,.21a16.89,16.89,0,0,0,6.25-.07l21.17-4.93h0c2.42-.6,3.64.5,4,1.73a3,3,0,0,1-2.31,3.63l-33.22,9.9a15.94,15.94,0,0,1-7.85.36l-.08,0-12.69-2.2Zm-14,.87H4a.84.84,0,0,1-.83-.83V77.89A.84.84,0,0,1,4,77.06H13a.83.83,0,0,1,.82.83V100A.83.83,0,0,1,13,100.87Zm89-53.81a1.62,1.62,0,0,1-1.63,1.62H96.67a1.58,1.58,0,0,0-1.52,1.18,32.33,32.33,0,0,1-3.57,8.59,1.56,1.56,0,0,0,.24,1.91L94.43,63a1.62,1.62,0,0,1,0,2.29l-7.56,7.53a1.62,1.62,0,0,1-2.3,0L82,70.19A1.59,1.59,0,0,0,80.05,70a32.32,32.32,0,0,1-8.61,3.57A1.55,1.55,0,0,0,70.26,75v3.67a1.62,1.62,0,0,1-1.63,1.62H58a1.57,1.57,0,0,1-.68-.15A6.77,6.77,0,0,0,58,77.72a7.69,7.69,0,0,0-6.82-8.1l-.25,0H46a47.48,47.48,0,0,0-8.79.68l-5-5a1.61,1.61,0,0,1,0-2.29l2.6-2.6A1.56,1.56,0,0,0,35,58.46a33,33,0,0,1-3.57-8.6,1.56,1.56,0,0,0-1.52-1.18H26.23a1.62,1.62,0,0,1-1.63-1.62V36.4a1.63,1.63,0,0,1,1.63-1.62h3.68a1.56,1.56,0,0,0,1.52-1.17A32.87,32.87,0,0,1,35,25a1.56,1.56,0,0,0-.24-1.91l-2.6-2.6a1.6,1.6,0,0,1-.48-1.15,1.58,1.58,0,0,1,.48-1.14l7.55-7.54a1.65,1.65,0,0,1,2.31,0l2.6,2.61a1.57,1.57,0,0,0,1.91.23A32.62,32.62,0,0,1,55.14,10a1.57,1.57,0,0,0,1.18-1.52V4.75A1.63,1.63,0,0,1,58,3.13H68.63a1.63,1.63,0,0,1,1.63,1.62V8.43A1.56,1.56,0,0,0,71.44,10a32.37,32.37,0,0,1,8.61,3.56A1.57,1.57,0,0,0,82,13.28l2.61-2.61a1.65,1.65,0,0,1,2.31,0l7.55,7.53a1.64,1.64,0,0,1,0,2.3l-2.61,2.6A1.56,1.56,0,0,0,91.58,25a32.53,32.53,0,0,1,3.57,8.6,1.57,1.57,0,0,0,1.52,1.17h3.68A1.63,1.63,0,0,1,102,36.4Z"/></g></g></svg>