<svg xmlns="http://www.w3.org/2000/svg" viewBox="0 0 80.47 108.12"><defs><style>.cls-1{stroke:#000;stroke-miterlimit:10;stroke-width:2px;}</style></defs><g id="Capa_2" data-name="Capa 2"><g id="Capa_1-2" data-name="Capa 1"><path class="cls-1" d="M11.7,31.19c-5,7.4-10.7,17.26-10.7,28A34.64,34.64,0,0,0,8.22,80,39.17,39.17,0,0,0,26,93.22l.1,0v12.3a1.55,1.55,0,0,0,1.55,1.56H52.12a1.56,1.56,0,0,0,1.55-1.56V93.22a1.56,1.56,0,0,0-3.11,0V104H29.15V89H50.56V94.8a1.56,1.56,0,0,0,3.11,0V93.48a38.63,38.63,0,0,0,19.6-14.85,34.5,34.5,0,0,0,6.2-19.48c0-13.79-9.64-26.82-17.39-37.28l-1.8-2.44h0l0,0c-1.9-2.6-3.87-5.27-5.63-8.06a2.33,2.33,0,0,0-4.28,1l-.15,1.24c-3.83-5.12-6.79-9.59-8-11.48a2.33,2.33,0,0,0-3.91,0c-1.22,1.89-4.17,6.36-8,11.48l-.15-1.24a2.33,2.33,0,0,0-4.28-1c-1.76,2.79-3.73,5.47-5.63,8.06l0,0-1.8,2.43-2.47,3.35m2.51,1.84c.83-1.14,1.65-2.25,2.46-3.34l1.8-2.44,0,0c1.52-2.08,3.09-4.22,4.58-6.44l.36,2.9a1.55,1.55,0,0,0,2.76.76c4.4-5.63,8-10.94,9.82-13.7,1.81,2.76,5.41,8.07,9.81,13.7a1.55,1.55,0,0,0,2.76-.76l.36-2.9c1.49,2.22,3.06,4.36,4.59,6.44l0,0c.59.8,1.19,1.62,1.81,2.44,7.86,10.63,16.78,22.67,16.78,35.44a31.87,31.87,0,0,1-5.66,17.73,35.67,35.67,0,0,1-17,13.31V83.8a5.8,5.8,0,0,1,1.71-4.12l0,0,3.44-3.61a12.1,12.1,0,0,0,3.35-8.38V46.6a5.68,5.68,0,0,0-8.9-4.68A5.66,5.66,0,0,0,45.6,39.5a5.67,5.67,0,0,0-9.74-3,5.67,5.67,0,0,0-9.81,3.9v9.46a10.44,10.44,0,0,0-7.77,10.08V70.08a9.21,9.21,0,0,0,3.22,7l2.89,2.44a4.68,4.68,0,0,1,1.66,3.57v6.84A36,36,0,0,1,10.71,78.16a31.56,31.56,0,0,1-6.6-19c0-9.86,5.43-19.19,10.17-26.22Zm-2.51-1.84-4.22,6M53.93,52.6v-6a2.58,2.58,0,1,1,5.15,0v6a2.58,2.58,0,0,1-5.15,0Zm-8.26-8.07a2.58,2.58,0,0,1,5.16,0V52.6a2.58,2.58,0,0,1-5.16,0ZM37.41,40.4a2.58,2.58,0,1,1,5.16,0V52.6h0A2.57,2.57,0,0,1,41,55a5.63,5.63,0,0,0-3.59-5.05Zm-8.26,0a2.58,2.58,0,0,1,5.16,0v9.12H29.15Zm24,37.1a8.86,8.86,0,0,0-2.61,6.3v2H29.15V83.09a7.73,7.73,0,0,0-2.76-5.94l-2.88-2.43a6.13,6.13,0,0,1-2.12-4.64V59.94a7.32,7.32,0,0,1,7.31-7.31h6.66a2.54,2.54,0,0,1,0,5.08H29.65a1.56,1.56,0,0,0-1.14,2.61,11.92,11.92,0,0,1,2.54,8.61,1.55,1.55,0,1,0,3.1.22,15.79,15.79,0,0,0-1.63-8.33h2.84a5.66,5.66,0,0,0,4.72-2.54,5.69,5.69,0,0,0,4-1.79,5.66,5.66,0,0,0,8.26,0,5.65,5.65,0,0,0,6.7,1.17v10a9,9,0,0,1-2.49,6.24Z"/></g></g></svg>