<svg xmlns="http://www.w3.org/2000/svg" viewBox="0 0 90.29 107.01"><defs><style>.cls-1{stroke:#000;stroke-miterlimit:10;}</style></defs><g id="Capa_2" data-name="Capa 2"><g id="Capa_1-2" data-name="Capa 1"><path d="M50.16,0A40.17,40.17,0,0,0,10,40.13V46L.35,65.38a3.35,3.35,0,0,0,3,4.84H10V86.33a6.69,6.69,0,0,0,7.77,6.59l12.3-2v12.78A3.35,3.35,0,0,0,33.44,107,3.41,3.41,0,0,0,34,107l40.13-6.69A3.33,3.33,0,0,0,76.91,97V76.37a17.08,17.08,0,0,1,4.21-10.71A40.13,40.13,0,0,0,50.16,0ZM76,61.4a23.43,23.43,0,0,0-5.75,15V94.14L36.78,99.72V86.94A3.28,3.28,0,0,0,35.6,84.4a3.32,3.32,0,0,0-2.16-.8,2.62,2.62,0,0,0-.55.05L16.72,86.33V66.88a3.34,3.34,0,0,0-3.34-3.34H8.75l7.61-15.23a3.21,3.21,0,0,0,.36-1.49V40.13A33.44,33.44,0,1,1,76,61.4Z"/><path id="Shape" class="cls-1" d="M63.22,32.74A5.13,5.13,0,1,0,62,30.54a14.88,14.88,0,0,0-3.64,4.73A12.24,12.24,0,0,0,55.8,33.8c-1-2-.86-4.7-.38-7,.08,0,.16,0,.25,0a5,5,0,1,0-2.61-.76,16.22,16.22,0,0,0-.24,6.58c-1-.32-2.2-.63-3.45-.92s-2.21-.47-3.22-.65a7.71,7.71,0,0,1-2.26-3.36,4.94,4.94,0,1,0-2.48.27,11.27,11.27,0,0,0,1.05,2.48c-2.44-.36-4.74-.62-6.58-.79a5,5,0,1,0-.21,2.45c2.62.25,6.16.66,9.68,1.3l.2,0a17.48,17.48,0,0,0-3.28,3.43,4.58,4.58,0,0,0-1.38-.22,4.94,4.94,0,1,0,3.52,1.49,12.67,12.67,0,0,1,3.85-3.55,6.13,6.13,0,0,1,.91-.4,33.84,33.84,0,0,1,5.11,1.56l.11.06h0a8.59,8.59,0,0,1,2.83,1.69,2.69,2.69,0,0,1,.39.5c.56,1,.44,2.37-.4,4.46-.45,1.15-1,2.35-1.69,3.62-2.17,4.34-4.63,9.25-.66,12.44,4.63,3.7,4.79,16.49,4.46,21.11a1.22,1.22,0,0,0,.3.89,1.2,1.2,0,0,0,.84.42h.09a1.23,1.23,0,0,0,1.23-1.14c0-.73,1.2-17.94-5.38-23.21-2.25-1.8-.93-4.89,1.32-9.4.55-1.1,1.1-2.22,1.56-3.31a3.6,3.6,0,0,1,3.43,1,5,5,0,1,0,1.91-1.6,7.05,7.05,0,0,0-4.44-2,6.37,6.37,0,0,0-.17-3.93,13.52,13.52,0,0,1,3.17-4.7Zm3.52-5.88a2.46,2.46,0,1,1-2.46,2.46A2.47,2.47,0,0,1,66.74,26.86ZM55.67,19.47a2.47,2.47,0,1,1-2.47,2.47A2.47,2.47,0,0,1,55.67,19.47Zm-16,3.7a2.47,2.47,0,1,1,2.46,2.46A2.47,2.47,0,0,1,39.66,23.17ZM31.05,33a2.46,2.46,0,1,1,2.46-2.46A2.47,2.47,0,0,1,31.05,33Zm9.84,11.08a2.46,2.46,0,1,1,2.47-2.46A2.46,2.46,0,0,1,40.89,44.09Zm28.32,3.7a2.47,2.47,0,1,1-2.47-2.47A2.47,2.47,0,0,1,69.21,47.79Z"/></g></g></svg>