<svg xmlns="http://www.w3.org/2000/svg" viewBox="0 0 107.01 107.01"><g id="Capa_2" data-name="Capa 2"><g id="Capa_1-2" data-name="Capa 1"><path d="M103.67,52.79a9.41,9.41,0,0,0-13,.78l-9.21,9.89a9.44,9.44,0,0,0-9-6.61H56.08c-1.25,0-1.67-.48-3.83-2.15a22,22,0,0,0-28.92.07l-6,5.32A9.37,9.37,0,0,0,8.67,60L1.73,63.45a3.13,3.13,0,0,0-1.4,4.2l18.81,37.62a3.15,3.15,0,0,0,4.21,1.41l6.93-3.47a9.4,9.4,0,0,0,5.2-8.74h37a22,22,0,0,0,17.56-8.78l15-20.07A9.38,9.38,0,0,0,103.67,52.79ZM27.48,97.6l-4.13,2.07-16-32,4.13-2.06A3.14,3.14,0,0,1,15.68,67L28.88,93.4A3.14,3.14,0,0,1,27.48,97.6Zm72.63-35.74-15,20.07A15.76,15.76,0,0,1,72.52,88.2H33.29L21.54,64.7l5.93-5.22a15.71,15.71,0,0,1,20.72,0c3.47,3.06,5.64,3.64,7.89,3.64H72.52a3.14,3.14,0,1,1,0,6.27h-16a3.14,3.14,0,0,0,0,6.27H74.62a9.43,9.43,0,0,0,6.89-3l13.8-14.81a3.13,3.13,0,0,1,4.8,4Z"/><path d="M65.92,21.39a12.46,12.46,0,0,0,3.47-8.64A12.72,12.72,0,0,0,56.85,0,12.92,12.92,0,0,0,44.1,12.75a12.31,12.31,0,0,0,3.58,8.67A19.12,19.12,0,0,0,37.83,38v3.13A3.14,3.14,0,0,0,41,44.31H72.52a3.15,3.15,0,0,0,3.14-3.14V38A19.11,19.11,0,0,0,65.92,21.39ZM56.85,6.27a6.46,6.46,0,0,1,6.27,6.48A6.27,6.27,0,0,1,56.85,19a6.46,6.46,0,0,1-6.48-6.27A6.65,6.65,0,0,1,56.85,6.27ZM44.1,38A12.92,12.92,0,0,1,56.85,25.29,12.66,12.66,0,0,1,69.39,38Z"/></g></g></svg>